<?xml version="1.0" encoding="UTF-8"?> <svg xmlns="http://www.w3.org/2000/svg" width="135" height="138" viewBox="0 0 135 138" fill="none"><rect x="0.166504" width="134" height="137.903" rx="67" fill="#BDE25F" fill-opacity="0.17"></rect><path d="M66.9115 47.3962C68.434 47.3962 69.9223 46.9447 71.1883 46.0988C72.4542 45.2529 73.4409 44.0507 74.0236 42.644C74.6062 41.2374 74.7587 39.6895 74.4616 38.1963C74.1646 36.703 73.4314 35.3313 72.3548 34.2547C71.2782 33.1781 69.9066 32.445 68.4133 32.1479C66.92 31.8509 65.3722 32.0033 63.9655 32.586C62.5589 33.1686 61.3566 34.1553 60.5107 35.4213C59.6649 36.6872 59.2134 38.1755 59.2134 39.6981C59.2131 40.7091 59.412 41.7102 59.7988 42.6443C60.1856 43.5784 60.7526 44.4272 61.4675 45.1421C62.1824 45.8569 63.0311 46.424 63.9652 46.8107C64.8993 47.1975 65.9005 47.3964 66.9115 47.3962Z" fill="#7D963D"></path><path d="M88.7249 50.4748C90.2475 50.475 91.7359 50.0237 93.002 49.1779C94.2681 48.3322 95.2549 47.13 95.8377 45.7233C96.4205 44.3167 96.5731 42.7689 96.2762 41.2755C95.9793 39.7822 95.2462 38.4104 94.1696 37.3337C93.0931 36.257 91.7214 35.5237 90.2281 35.2266C88.7348 34.9295 87.1869 35.0819 85.7802 35.6645C84.3735 36.2471 83.1712 37.2338 82.3253 38.4998C81.4793 39.7657 81.0278 41.2541 81.0278 42.7767C81.0276 43.7876 81.2265 44.7887 81.6132 45.7227C81.9999 46.6567 82.5668 47.5054 83.2816 48.2203C83.9964 48.9352 84.845 49.5022 85.7789 49.8891C86.7129 50.2759 87.714 50.4749 88.7249 50.4748Z" fill="#7D963D"></path><path d="M45.6224 50.4748C47.1449 50.4748 48.6333 50.0233 49.8992 49.1774C51.1652 48.3315 52.1518 47.1293 52.7345 45.7226C53.3171 44.316 53.4696 42.7682 53.1726 41.2749C52.8755 39.7816 52.1424 38.4099 51.0658 37.3333C49.9892 36.2567 48.6175 35.5236 47.1242 35.2265C45.6309 34.9295 44.0831 35.0819 42.6765 35.6646C41.2698 36.2472 40.0676 37.2339 39.2217 38.4999C38.3758 39.7658 37.9243 41.2542 37.9243 42.7767C37.924 43.7877 38.123 44.7889 38.5097 45.7229C38.8965 46.657 39.4635 47.5058 40.1784 48.2207C40.8933 48.9356 41.742 49.5026 42.6761 49.8894C43.6102 50.2761 44.6114 50.475 45.6224 50.4748Z" fill="#7D963D"></path><path d="M102.135 76.078L100.161 60.2978C99.9258 58.437 99.0203 56.7257 97.614 55.4845C96.2078 54.2434 94.3972 53.5574 92.5216 53.5552H84.9198C84.0451 53.5579 83.1775 53.7112 82.3548 54.0083C81.99 54.1374 81.6873 54.3992 81.5069 54.7415C81.3265 55.0838 81.2818 55.4815 81.3816 55.8554C81.5439 56.4289 81.6653 57.0133 81.7447 57.6041L83.7864 75.4868C83.9222 76.6477 83.8116 77.8241 83.4619 78.9394C83.1123 80.0547 82.5314 81.0837 81.7573 81.9594C81.3677 82.3836 80.9318 82.7628 80.4575 83.0896C80.2428 83.2422 80.0711 83.4476 79.9589 83.6859C79.8467 83.9242 79.7979 84.1874 79.8171 84.4501L81.0268 101.388C81.0543 101.776 81.2281 102.14 81.5132 102.406C81.7983 102.672 82.1734 102.819 82.5631 102.819H94.8794C95.2684 102.819 95.6428 102.671 95.9277 102.406C96.2126 102.142 96.3869 101.779 96.4156 101.391L97.8535 81.2572C98.4813 81.2161 99.094 81.0472 99.6541 80.7606C100.214 80.4741 100.71 80.0761 101.11 79.591C101.511 79.1059 101.808 78.5441 101.983 77.94C102.159 77.3358 102.209 76.7022 102.131 76.078H102.135Z" fill="#7D963D"></path><path d="M53.7748 83.3895C53.1381 82.9963 52.5588 82.517 52.0533 81.9652C51.2791 81.0896 50.6983 80.0605 50.3486 78.9453C49.999 77.83 49.8884 76.6535 50.0241 75.4926L52.0659 57.61C52.1453 56.9755 52.2752 56.3484 52.4541 55.7346C52.5085 55.5379 52.5233 55.3324 52.4978 55.13C52.4722 54.9275 52.4067 54.7322 52.3051 54.5552C52.2034 54.3783 52.0677 54.2233 51.9058 54.0991C51.7438 53.975 51.5588 53.8842 51.3616 53.8321C50.7283 53.6578 50.075 53.5667 49.4182 53.561H41.8154C39.9394 53.5622 38.1283 54.2477 36.7218 55.4891C35.3153 56.7305 34.4101 58.4424 34.1759 60.3037L32.2022 76.0807C32.1241 76.7053 32.1745 77.3392 32.3502 77.9436C32.526 78.548 32.8234 79.11 33.2242 79.5953C33.625 80.0806 34.1208 80.4789 34.6811 80.7657C35.2414 81.0524 35.8543 81.2217 36.4824 81.263L37.9255 101.394C37.9531 101.782 38.127 102.145 38.4121 102.411C38.6973 102.676 39.0724 102.823 39.4618 102.822H51.776C52.165 102.822 52.5394 102.674 52.8243 102.409C53.1092 102.144 53.2835 101.782 53.3123 101.394L54.4979 84.8065C54.5194 84.5266 54.4632 84.2463 54.3357 83.9963C54.2081 83.7463 54.014 83.5363 53.7748 83.3895Z" fill="#7D963D"></path><path d="M80.7297 75.8371L78.6879 57.9513C78.5245 55.9594 77.6345 54.097 76.1873 52.7185C74.7401 51.34 72.8367 50.5416 70.8392 50.4751H62.9778C60.9802 50.5411 59.0765 51.3394 57.6292 52.718C56.1819 54.0966 55.2921 55.9592 55.1291 57.9513L53.0873 75.835C52.9987 76.5661 53.0655 77.3076 53.2836 78.011C53.5016 78.7143 53.8659 79.3637 54.3526 79.9164C54.7498 80.3729 55.2341 80.7455 55.7772 81.0125C56.3202 81.2796 56.911 81.4356 57.5151 81.4715L59.2146 104.478C59.2439 104.865 59.4184 105.227 59.7033 105.492C59.9881 105.756 60.3623 105.903 60.7509 105.903H73.0672C73.4558 105.903 73.8299 105.756 74.1148 105.492C74.3996 105.227 74.5742 104.865 74.6034 104.478L76.303 81.4715C76.907 81.4352 77.4977 81.2791 78.0407 81.0121C78.5837 80.7451 79.068 80.3726 79.4655 79.9164C79.9502 79.3642 80.3132 78.7162 80.5308 78.0144C80.7484 77.3126 80.8159 76.5729 80.7286 75.8434L80.7297 75.8371Z" fill="#7D963D"></path></svg> 