<?xml version="1.0" encoding="UTF-8"?> <svg xmlns="http://www.w3.org/2000/svg" width="144" height="143" viewBox="0 0 144 143" fill="none"><rect x="0.83252" width="142.669" height="142.668" rx="71.3338" fill="#94C1FF" fill-opacity="0.17"></rect><path d="M103.41 47.4676H106.846V42.857L96.2956 42.8492L94.939 53.4827L99.5127 54.0683L99.9596 50.5495C103.827 55.7031 106.183 61.8321 106.763 68.2495C107.343 74.6669 106.124 81.1189 103.243 86.8825C100.362 92.646 95.9327 97.4932 90.4515 100.881C84.9702 104.268 78.6538 106.062 72.2103 106.062H72.1846C67.0639 106.069 62.0048 104.945 57.3696 102.768C52.7344 100.592 48.6378 97.4172 45.3732 93.4721C42.1086 89.5269 39.7567 84.9087 38.486 79.9481C37.2153 74.9875 37.0572 69.8073 38.023 64.7785C38.9889 59.7496 41.0547 54.9966 44.0727 50.8597C47.0906 46.7228 50.986 43.3044 55.4798 40.8493C59.9737 38.3942 64.9548 36.9632 70.0664 36.6586C75.1781 36.3541 80.2939 37.1837 85.0474 39.0879L86.7616 34.8081C81.3795 32.6575 75.5887 31.7229 69.8034 32.071C64.018 32.4192 58.3811 34.0416 53.2959 36.8222C48.2106 39.6027 43.8026 43.4727 40.3873 48.1553C36.972 52.838 34.6336 58.2175 33.5396 63.9091C32.4456 69.6007 32.6229 75.4638 34.0588 81.0789C35.4948 86.694 38.1539 91.9224 41.8459 96.3901C45.5379 100.858 50.1717 104.454 55.4157 106.923C60.6597 109.391 66.3843 110.67 72.1801 110.668H72.2092C79.5403 110.664 86.7243 108.61 92.9498 104.739C99.1753 100.867 104.194 95.3322 107.439 88.7585C110.685 82.1849 112.027 74.8347 111.315 67.5383C110.603 60.2418 107.865 53.2898 103.41 47.4676Z" fill="#3D6396"></path><path d="M72.1557 47.3535C67.4143 47.3542 62.7796 48.7608 58.8376 51.3954C54.8957 54.0301 51.8235 57.7744 50.0095 62.1551C48.1955 66.5357 47.7212 71.3559 48.6466 76.0061C49.572 80.6562 51.8555 84.9276 55.2084 88.28C58.5613 91.6324 62.833 93.9154 67.4833 94.8401C72.1336 95.7649 76.9537 95.2899 81.3341 93.4753C85.7145 91.6607 89.4584 88.588 92.0925 84.6456C94.7266 80.7033 96.1325 76.0684 96.1325 71.327C96.1251 64.9705 93.5965 58.8766 89.1015 54.3822C84.6065 49.8878 78.5122 47.36 72.1557 47.3535ZM82.0383 73.6323H69.8504V61.4455H74.461V69.0206H82.0372L82.0383 73.6323Z" fill="#3D6396"></path></svg> 