<?xml version="1.0" encoding="UTF-8"?> <svg xmlns="http://www.w3.org/2000/svg" width="136" height="143" viewBox="0 0 136 143" fill="none"><rect x="0.767578" width="134.798" height="142.298" rx="67.3991" fill="#51CAA7" fill-opacity="0.17"></rect><path d="M102.63 68.995L92.6073 61.659L92.1578 58.0886C91.5109 52.9496 89.5363 48.0677 86.4284 43.9241C83.3206 39.7806 79.1868 36.5182 74.4343 34.4585C69.6819 32.3988 64.4748 31.6128 59.3262 32.178C54.1775 32.7433 49.265 34.6402 45.0726 37.6819C40.8802 40.7235 37.5526 44.805 35.4177 49.5242C33.2828 54.2433 32.4143 59.4373 32.8977 64.5942C33.3811 69.7512 35.1998 74.6932 38.1746 78.9334C41.1493 83.1735 45.1775 86.5655 49.8621 88.775L47.0469 102.897C46.9285 103.49 47.0495 104.106 47.3836 104.611C47.7176 105.116 48.2376 105.468 48.8302 105.59L71.2847 110.25C71.5886 110.313 71.9022 110.314 72.2065 110.252C72.5108 110.191 72.7994 110.068 73.0548 109.892C73.3102 109.715 73.5272 109.489 73.6925 109.226C73.8577 108.963 73.9679 108.67 74.0164 108.363L76.0016 95.9237H94.6818C95.0111 95.9237 95.3366 95.8528 95.6361 95.7157C95.9356 95.5787 96.202 95.3787 96.4173 95.1294C96.6325 94.8802 96.7916 94.5875 96.8836 94.2712C96.9756 93.955 96.9984 93.6226 96.9504 93.2968L94.6604 77.7191L102.498 72.7829C102.814 72.5833 103.076 72.3098 103.262 71.986C103.447 71.6622 103.551 71.2979 103.564 70.9248C103.577 70.5517 103.499 70.181 103.336 69.8451C103.174 69.5091 102.931 69.2179 102.63 68.9969V68.995ZM62.5761 82.1642C58.494 82.1642 54.5036 80.9537 51.1095 78.6859C47.7155 76.418 45.0701 73.1946 43.5079 69.4233C41.9458 65.652 41.5371 61.5021 42.3335 57.4985C43.1298 53.4949 45.0955 49.8174 47.982 46.9309C50.8684 44.0445 54.5459 42.0788 58.5496 41.2824C62.5532 40.4861 66.703 40.8948 70.4743 42.4569C74.2456 44.0191 77.469 46.6644 79.7369 50.0585C82.0048 53.4526 83.2152 57.443 83.2152 61.525C83.2091 66.997 81.0326 72.2431 77.1633 76.1123C73.2941 79.9816 68.048 82.1581 62.5761 82.1642Z" fill="#3C9379"></path><path d="M62.5763 45.4727C59.4014 45.4727 56.2979 46.4141 53.6581 48.178C51.0183 49.9418 48.9608 52.4489 47.7458 55.382C46.5309 58.3152 46.213 61.5428 46.8324 64.6567C47.4518 67.7705 48.9806 70.6308 51.2256 72.8758C53.4705 75.1207 56.3308 76.6496 59.4446 77.269C62.5585 77.8883 65.7861 77.5704 68.7193 76.3555C71.6525 75.1405 74.1595 73.083 75.9234 70.4432C77.6872 67.8034 78.6287 64.6999 78.6287 61.525C78.6238 57.2692 76.931 53.189 73.9217 50.1797C70.9123 47.1703 66.8322 45.4775 62.5763 45.4727ZM73.3711 58.5603L61.9045 70.0269C61.6916 70.2399 61.4388 70.4089 61.1606 70.5241C60.8823 70.6394 60.5841 70.6988 60.2829 70.6988C59.9817 70.6988 59.6835 70.6394 59.4052 70.5241C59.127 70.4089 58.8742 70.2399 58.6613 70.0269L51.7815 63.1472C51.3514 62.7171 51.1098 62.1337 51.1098 61.5255C51.1098 60.9173 51.3514 60.334 51.7815 59.9039C52.2116 59.4738 52.7949 59.2322 53.4032 59.2322C54.0114 59.2322 54.5947 59.4738 55.0248 59.9039L60.2834 65.1624L70.1278 55.318C70.3407 55.1051 70.5936 54.9363 70.8718 54.8211C71.15 54.7059 71.4482 54.6466 71.7493 54.6467C72.0504 54.6467 72.3486 54.7061 72.6268 54.8213C72.9049 54.9366 73.1577 55.1056 73.3706 55.3185C73.5835 55.5315 73.7523 55.7843 73.8675 56.0625C73.9827 56.3407 74.042 56.6389 74.0419 56.94C74.0419 57.2411 73.9826 57.5393 73.8673 57.8175C73.752 58.0957 73.5831 58.3484 73.3701 58.5613L73.3711 58.5603Z" fill="#3C9379"></path></svg> 